<svg width="374" height="381" viewBox="0 0 374 381" fill="none" xmlns="http://www.w3.org/2000/svg">
<path fill-rule="evenodd" clip-rule="evenodd" d="M184.891 95.2209C187.653 95.2209 189.891 97.4595 189.891 100.221V296.324C189.891 299.085 187.653 301.324 184.891 301.324C182.13 301.324 179.891 299.085 179.891 296.324V100.221C179.891 97.4595 182.13 95.2209 184.891 95.2209Z" fill="#42A0F0"/>
<path fill-rule="evenodd" clip-rule="evenodd" d="M221.751 109.704C223.734 111.625 223.785 114.79 221.863 116.774L188.09 151.637C186.169 153.62 183.003 153.671 181.02 151.749C179.037 149.828 178.986 146.662 180.908 144.679L214.681 109.816C216.602 107.833 219.768 107.782 221.751 109.704Z" fill="#42A0F0"/>
<path fill-rule="evenodd" clip-rule="evenodd" d="M146.101 109.759C148.053 107.807 151.219 107.807 153.172 109.759L188.035 144.622C189.987 146.575 189.987 149.741 188.035 151.693C186.082 153.646 182.916 153.646 180.964 151.693L146.101 116.83C144.148 114.878 144.148 111.712 146.101 109.759Z" fill="#42A0F0"/>
<path fill-rule="evenodd" clip-rule="evenodd" d="M181.02 249.155C183.003 247.233 186.169 247.284 188.09 249.267L221.863 284.13C223.785 286.113 223.734 289.279 221.751 291.2C219.768 293.122 216.602 293.071 214.681 291.088L180.908 256.225C178.986 254.242 179.037 251.076 181.02 249.155Z" fill="#42A0F0"/>
<path fill-rule="evenodd" clip-rule="evenodd" d="M188.035 249.21C189.987 251.163 189.987 254.329 188.035 256.282L153.172 291.145C151.219 293.097 148.053 293.097 146.101 291.145C144.148 289.192 144.148 286.026 146.101 284.073L180.964 249.21C182.916 247.258 186.082 247.258 188.035 249.21Z" fill="#42A0F0"/>
<path fill-rule="evenodd" clip-rule="evenodd" d="M273.667 147.558C275.048 149.949 274.229 153.007 271.837 154.388L102.007 252.439C99.6157 253.82 96.5578 253.001 95.1771 250.609C93.7963 248.218 94.6157 245.16 97.0072 243.779L266.837 145.728C269.229 144.347 272.287 145.166 273.667 147.558Z" fill="#42A0F0"/>
<path fill-rule="evenodd" clip-rule="evenodd" d="M279.555 186.721C278.883 189.399 276.167 191.025 273.489 190.353L226.41 178.536C223.731 177.864 222.105 175.148 222.777 172.469C223.45 169.791 226.166 168.165 228.844 168.837L275.923 180.654C278.601 181.326 280.228 184.042 279.555 186.721Z" fill="#42A0F0"/>
<path fill-rule="evenodd" clip-rule="evenodd" d="M241.682 121.233C244.349 121.948 245.932 124.69 245.217 127.357L232.457 174.981C231.742 177.648 229 179.231 226.333 178.516C223.665 177.802 222.083 175.06 222.797 172.393L235.558 124.769C236.273 122.101 239.014 120.519 241.682 121.233Z" fill="#42A0F0"/>
<path fill-rule="evenodd" clip-rule="evenodd" d="M138.422 221.172C141.077 221.929 142.617 224.696 141.86 227.351L128.554 274.031C127.797 276.687 125.031 278.226 122.375 277.469C119.719 276.712 118.18 273.945 118.937 271.29L132.243 224.61C133 221.954 135.766 220.415 138.422 221.172Z" fill="#42A0F0"/>
<path fill-rule="evenodd" clip-rule="evenodd" d="M141.881 227.275C141.166 229.942 138.424 231.525 135.757 230.81L88.1332 218.05C85.4659 217.335 83.883 214.593 84.5977 211.926C85.3124 209.258 88.0541 207.676 90.7214 208.39L138.345 221.151C141.013 221.866 142.595 224.607 141.881 227.275Z" fill="#42A0F0"/>
<path fill-rule="evenodd" clip-rule="evenodd" d="M272.732 250.61C271.351 253.001 268.293 253.821 265.902 252.44L96.0716 154.388C93.6802 153.008 92.8608 149.95 94.2415 147.558C95.6222 145.167 98.6802 144.347 101.072 145.728L270.902 243.78C273.293 245.16 274.113 248.218 272.732 250.61Z" fill="#42A0F0"/>
<path fill-rule="evenodd" clip-rule="evenodd" d="M241.759 275.29C239.104 276.047 236.337 274.508 235.58 271.852L222.275 225.172C221.518 222.517 223.057 219.75 225.712 218.993C228.368 218.236 231.135 219.775 231.892 222.431L245.197 269.111C245.954 271.767 244.415 274.533 241.759 275.29Z" fill="#42A0F0"/>
<path fill-rule="evenodd" clip-rule="evenodd" d="M279.537 209.747C280.251 212.414 278.668 215.156 276.001 215.871L228.377 228.631C225.71 229.346 222.968 227.763 222.254 225.096C221.539 222.428 223.122 219.687 225.789 218.972L273.413 206.211C276.08 205.497 278.822 207.08 279.537 209.747Z" fill="#42A0F0"/>
<path fill-rule="evenodd" clip-rule="evenodd" d="M141.357 170.29C142.029 172.969 140.403 175.685 137.725 176.357L90.6458 188.174C87.9674 188.846 85.2512 187.22 84.579 184.542C83.9067 181.863 85.5329 179.147 88.2113 178.475L135.29 166.658C137.968 165.986 140.685 167.612 141.357 170.29Z" fill="#42A0F0"/>
<path fill-rule="evenodd" clip-rule="evenodd" d="M137.802 176.337C135.134 177.052 132.392 175.469 131.678 172.802L118.917 125.178C118.202 122.511 119.785 119.769 122.453 119.054C125.12 118.34 127.862 119.923 128.576 122.59L141.337 170.214C142.052 172.881 140.469 175.623 137.802 176.337Z" fill="#42A0F0"/>
<path fill-rule="evenodd" clip-rule="evenodd" d="M112.884 60.5C113.16 60.5 113.384 60.7239 113.384 61V74.394C113.384 74.6701 113.16 74.894 112.884 74.894C112.608 74.894 112.384 74.6701 112.384 74.394V61C112.384 60.7239 112.608 60.5 112.884 60.5Z" fill="#42A0F0"/>
<path fill-rule="evenodd" clip-rule="evenodd" d="M115.221 62.9554C115.344 63.2024 115.244 63.5027 114.997 63.6262L112.818 64.7152C112.571 64.8386 112.271 64.7385 112.147 64.4915C112.024 64.2445 112.124 63.9441 112.371 63.8207L114.55 62.7317C114.797 62.6082 115.097 62.7084 115.221 62.9554Z" fill="#42A0F0"/>
<path fill-rule="evenodd" clip-rule="evenodd" d="M108.852 63.0209C108.939 62.7589 109.222 62.6173 109.484 62.7046L112.752 63.7936C113.014 63.8809 113.156 64.1641 113.069 64.426C112.981 64.688 112.698 64.8296 112.436 64.7423L109.168 63.6533C108.906 63.566 108.765 63.2829 108.852 63.0209Z" fill="#42A0F0"/>
<path fill-rule="evenodd" clip-rule="evenodd" d="M112.147 71.6715C112.271 71.4245 112.571 71.3243 112.818 71.4478L114.997 72.5368C115.244 72.6602 115.344 72.9605 115.221 73.2075C115.097 73.4545 114.797 73.5547 114.55 73.4313L112.371 72.3423C112.124 72.2188 112.024 71.9185 112.147 71.6715Z" fill="#42A0F0"/>
<path fill-rule="evenodd" clip-rule="evenodd" d="M113.069 71.737C113.156 71.9989 113.014 72.2821 112.752 72.3694L109.484 73.4584C109.222 73.5457 108.939 73.4041 108.852 73.1421C108.765 72.8801 108.906 72.597 109.168 72.5097L112.436 71.4207C112.698 71.3334 112.981 71.475 113.069 71.737Z" fill="#42A0F0"/>
<path fill-rule="evenodd" clip-rule="evenodd" d="M119.085 64.1544C119.223 64.3935 119.141 64.6993 118.902 64.8374L107.302 71.5344C107.063 71.6725 106.757 71.5905 106.619 71.3514C106.481 71.1122 106.563 70.8064 106.802 70.6684L118.402 63.9714C118.641 63.8333 118.947 63.9152 119.085 64.1544Z" fill="#42A0F0"/>
<path fill-rule="evenodd" clip-rule="evenodd" d="M119.503 66.9472C119.436 67.2151 119.164 67.3777 118.897 67.3104L115.681 66.503C115.413 66.4357 115.251 66.1641 115.318 65.8963C115.385 65.6284 115.657 65.4658 115.925 65.5331L119.14 66.3405C119.408 66.4078 119.571 66.6794 119.503 66.9472Z" fill="#42A0F0"/>
<path fill-rule="evenodd" clip-rule="evenodd" d="M116.804 62.2826C117.071 62.354 117.229 62.6282 117.157 62.8949L116.286 66.1474C116.214 66.4142 115.94 66.5725 115.673 66.501C115.407 66.4295 115.248 66.1554 115.32 65.8886L116.191 62.6361C116.263 62.3694 116.537 62.2111 116.804 62.2826Z" fill="#42A0F0"/>
<path fill-rule="evenodd" clip-rule="evenodd" d="M109.753 69.1091C110.018 69.1848 110.172 69.4614 110.097 69.727L109.188 72.9154C109.112 73.181 108.836 73.3349 108.57 73.2593C108.305 73.1836 108.151 72.907 108.226 72.6414L109.135 69.453C109.211 69.1874 109.487 69.0335 109.753 69.1091Z" fill="#42A0F0"/>
<path fill-rule="evenodd" clip-rule="evenodd" d="M110.099 69.7194C110.027 69.9861 109.753 70.1444 109.486 70.073L106.234 69.2014C105.967 69.13 105.809 68.8558 105.88 68.5891C105.952 68.3223 106.226 68.164 106.493 68.2355L109.745 69.107C110.012 69.1785 110.17 69.4527 110.099 69.7194Z" fill="#42A0F0"/>
<path fill-rule="evenodd" clip-rule="evenodd" d="M119.021 71.3514C118.883 71.5906 118.577 71.6725 118.338 71.5344L106.738 64.8374C106.499 64.6994 106.417 64.3936 106.555 64.1544C106.693 63.9153 106.999 63.8333 107.238 63.9714L118.838 70.6684C119.077 70.8065 119.159 71.1123 119.021 71.3514Z" fill="#42A0F0"/>
<path fill-rule="evenodd" clip-rule="evenodd" d="M116.812 73.1103C116.546 73.186 116.27 73.032 116.194 72.7664L115.285 69.578C115.21 69.3124 115.364 69.0358 115.629 68.9601C115.895 68.8845 116.171 69.0384 116.247 69.304L117.156 72.4924C117.231 72.758 117.077 73.0346 116.812 73.1103Z" fill="#42A0F0"/>
<path fill-rule="evenodd" clip-rule="evenodd" d="M119.502 68.4401C119.573 68.7068 119.415 68.981 119.148 69.0525L115.896 69.924C115.629 69.9954 115.355 69.8371 115.283 69.5704C115.212 69.3037 115.37 69.0295 115.637 68.958L118.889 68.0865C119.156 68.0151 119.43 68.1733 119.502 68.4401Z" fill="#42A0F0"/>
<path fill-rule="evenodd" clip-rule="evenodd" d="M110.064 65.7473C110.131 66.0151 109.969 66.2867 109.701 66.354L106.485 67.1614C106.218 67.2287 105.946 67.0661 105.879 66.7982C105.811 66.5304 105.974 66.2588 106.242 66.1915L109.457 65.3841C109.725 65.3169 109.997 65.4794 110.064 65.7473Z" fill="#42A0F0"/>
<path fill-rule="evenodd" clip-rule="evenodd" d="M109.709 66.352C109.442 66.4235 109.168 66.2652 109.096 65.9985L108.225 62.7459C108.153 62.4792 108.311 62.205 108.578 62.1336C108.845 62.0621 109.119 62.2204 109.191 62.4871L110.062 65.7396C110.134 66.0064 109.975 66.2805 109.709 66.352Z" fill="#42A0F0"/>
<path fill-rule="evenodd" clip-rule="evenodd" d="M297.67 90.155C297.947 90.155 298.17 90.3789 298.17 90.655V113.615C298.17 113.891 297.947 114.115 297.67 114.115C297.394 114.115 297.17 113.891 297.17 113.615V90.655C297.17 90.3789 297.394 90.155 297.67 90.155Z" fill="#42A0F0"/>
<path fill-rule="evenodd" clip-rule="evenodd" d="M301.556 94.6528C301.623 94.9207 301.46 95.1922 301.192 95.2591L296.834 96.3481C296.566 96.4151 296.295 96.2522 296.228 95.9843C296.161 95.7164 296.324 95.4449 296.592 95.378L300.95 94.289C301.218 94.222 301.489 94.3849 301.556 94.6528Z" fill="#42A0F0"/>
<path fill-rule="evenodd" clip-rule="evenodd" d="M290.776 94.676C290.83 94.4052 291.093 94.2296 291.364 94.2837L296.811 95.3727C297.082 95.4269 297.258 95.6903 297.204 95.961C297.149 96.2318 296.886 96.4075 296.615 96.3533L291.168 95.2643C290.897 95.2102 290.722 94.9468 290.776 94.676Z" fill="#42A0F0"/>
<path fill-rule="evenodd" clip-rule="evenodd" d="M296.266 108.713C296.39 108.466 296.69 108.366 296.937 108.49L301.295 110.669C301.542 110.792 301.642 111.093 301.519 111.34C301.395 111.587 301.095 111.687 300.848 111.563L296.49 109.384C296.243 109.261 296.143 108.96 296.266 108.713Z" fill="#42A0F0"/>
<path fill-rule="evenodd" clip-rule="evenodd" d="M297.177 108.751C297.28 109.008 297.155 109.299 296.899 109.401L291.452 111.58C291.196 111.683 290.905 111.558 290.802 111.302C290.699 111.045 290.824 110.754 291.081 110.652L296.528 108.473C296.784 108.37 297.075 108.495 297.177 108.751Z" fill="#42A0F0"/>
<path fill-rule="evenodd" clip-rule="evenodd" d="M307.99 96.24C308.128 96.4791 308.046 96.7849 307.807 96.923L287.923 108.403C287.684 108.541 287.378 108.459 287.24 108.22C287.102 107.981 287.184 107.675 287.423 107.537L307.307 96.0569C307.546 95.9189 307.852 96.0008 307.99 96.24Z" fill="#42A0F0"/>
<path fill-rule="evenodd" clip-rule="evenodd" d="M308.671 100.762C308.603 101.03 308.332 101.192 308.064 101.125L302.552 99.7417C302.284 99.6745 302.121 99.4029 302.189 99.135C302.256 98.8672 302.527 98.7046 302.795 98.7718L308.307 100.155C308.575 100.222 308.738 100.494 308.671 100.762Z" fill="#42A0F0"/>
<path fill-rule="evenodd" clip-rule="evenodd" d="M304.297 93.1976C304.564 93.2691 304.722 93.5432 304.651 93.81L303.156 99.3861C303.085 99.6528 302.811 99.8111 302.544 99.7396C302.277 99.6682 302.119 99.394 302.19 99.1273L303.685 93.5512C303.756 93.2844 304.03 93.1261 304.297 93.1976Z" fill="#42A0F0"/>
<path fill-rule="evenodd" clip-rule="evenodd" d="M292.206 104.898C292.472 104.974 292.625 105.251 292.55 105.516L290.992 110.982C290.916 111.247 290.639 111.401 290.374 111.325C290.108 111.25 289.954 110.973 290.03 110.707L291.588 105.242C291.664 104.977 291.94 104.823 292.206 104.898Z" fill="#42A0F0"/>
<path fill-rule="evenodd" clip-rule="evenodd" d="M292.552 105.509C292.48 105.775 292.206 105.934 291.94 105.862L286.363 104.368C286.097 104.297 285.938 104.022 286.01 103.756C286.081 103.489 286.355 103.331 286.622 103.402L292.198 104.896C292.465 104.968 292.623 105.242 292.552 105.509Z" fill="#42A0F0"/>
<path fill-rule="evenodd" clip-rule="evenodd" d="M307.88 108.221C307.742 108.46 307.437 108.542 307.197 108.404L287.313 96.9239C287.074 96.7859 286.992 96.4801 287.13 96.2409C287.268 96.0018 287.574 95.9198 287.813 96.0579L307.697 107.538C307.937 107.676 308.018 107.982 307.88 108.221Z" fill="#42A0F0"/>
<path fill-rule="evenodd" clip-rule="evenodd" d="M304.305 111.071C304.039 111.146 303.762 110.993 303.687 110.727L302.129 105.262C302.053 104.996 302.207 104.72 302.472 104.644C302.738 104.568 303.015 104.722 303.09 104.988L304.648 110.453C304.724 110.718 304.57 110.995 304.305 111.071Z" fill="#42A0F0"/>
<path fill-rule="evenodd" clip-rule="evenodd" d="M308.669 103.501C308.74 103.768 308.582 104.042 308.315 104.113L302.739 105.608C302.472 105.679 302.198 105.521 302.127 105.254C302.055 104.987 302.213 104.713 302.48 104.642L308.056 103.148C308.323 103.076 308.597 103.234 308.669 103.501Z" fill="#42A0F0"/>
<path fill-rule="evenodd" clip-rule="evenodd" d="M292.49 98.8805C292.557 99.1484 292.395 99.42 292.127 99.4872L286.615 100.87C286.347 100.938 286.075 100.775 286.008 100.507C285.941 100.239 286.103 99.9677 286.371 99.9005L291.883 98.5173C292.151 98.4501 292.423 98.6127 292.49 98.8805Z" fill="#42A0F0"/>
<path fill-rule="evenodd" clip-rule="evenodd" d="M292.134 99.4851C291.868 99.5566 291.593 99.3983 291.522 99.1316L290.028 93.5555C289.956 93.2887 290.115 93.0146 290.381 92.9431C290.648 92.8716 290.922 93.0299 290.994 93.2967L292.488 98.8728C292.559 99.1395 292.401 99.4137 292.134 99.4851Z" fill="#42A0F0"/>
<path fill-rule="evenodd" clip-rule="evenodd" d="M283.527 259.022C283.803 259.022 284.027 259.246 284.027 259.522V278.372C284.027 278.648 283.803 278.872 283.527 278.872C283.251 278.872 283.027 278.648 283.027 278.372V259.522C283.027 259.246 283.251 259.022 283.527 259.022Z" fill="#42A0F0"/>
<path fill-rule="evenodd" clip-rule="evenodd" d="M286.292 262.393C286.38 262.655 286.238 262.938 285.976 263.025L282.708 264.114C282.446 264.202 282.163 264.06 282.076 263.798C281.988 263.536 282.13 263.253 282.392 263.166L285.66 262.077C285.922 261.989 286.205 262.131 286.292 262.393Z" fill="#42A0F0"/>
<path fill-rule="evenodd" clip-rule="evenodd" d="M277.707 262.43C277.774 262.162 278.045 261.999 278.313 262.066L282.671 263.155C282.939 263.222 283.102 263.493 283.035 263.761C282.968 264.029 282.697 264.192 282.429 264.125L278.071 263.036C277.803 262.969 277.64 262.698 277.707 262.43Z" fill="#42A0F0"/>
<path fill-rule="evenodd" clip-rule="evenodd" d="M282.134 274.258C282.287 274.028 282.597 273.966 282.827 274.119L286.095 276.298C286.325 276.451 286.387 276.762 286.234 276.991C286.081 277.221 285.77 277.283 285.54 277.13L282.272 274.951C282.043 274.798 281.981 274.487 282.134 274.258Z" fill="#42A0F0"/>
<path fill-rule="evenodd" clip-rule="evenodd" d="M282.997 274.311C283.121 274.558 283.021 274.859 282.774 274.982L278.416 277.161C278.169 277.285 277.868 277.185 277.745 276.938C277.621 276.691 277.721 276.39 277.968 276.267L282.326 274.088C282.573 273.964 282.874 274.064 282.997 274.311Z" fill="#42A0F0"/>
<path fill-rule="evenodd" clip-rule="evenodd" d="M292.077 264.063C292.215 264.302 292.133 264.608 291.894 264.746L275.57 274.171C275.33 274.309 275.025 274.227 274.887 273.988C274.748 273.749 274.83 273.443 275.07 273.305L291.394 263.88C291.633 263.742 291.939 263.824 292.077 264.063Z" fill="#42A0F0"/>
<path fill-rule="evenodd" clip-rule="evenodd" d="M292.645 267.841C292.577 268.109 292.306 268.272 292.038 268.205L287.513 267.069C287.245 267.002 287.082 266.73 287.15 266.462C287.217 266.195 287.489 266.032 287.756 266.099L292.281 267.235C292.549 267.302 292.712 267.574 292.645 267.841Z" fill="#42A0F0"/>
<path fill-rule="evenodd" clip-rule="evenodd" d="M288.991 261.524C289.258 261.595 289.416 261.869 289.344 262.136L288.118 266.713C288.046 266.98 287.772 267.138 287.505 267.067C287.239 266.996 287.08 266.721 287.152 266.455L288.378 261.877C288.45 261.61 288.724 261.452 288.991 261.524Z" fill="#42A0F0"/>
<path fill-rule="evenodd" clip-rule="evenodd" d="M279.065 271.13C279.331 271.205 279.485 271.482 279.409 271.748L278.13 276.234C278.054 276.5 277.778 276.654 277.512 276.578C277.247 276.502 277.093 276.226 277.168 275.96L278.447 271.473C278.523 271.208 278.8 271.054 279.065 271.13Z" fill="#42A0F0"/>
<path fill-rule="evenodd" clip-rule="evenodd" d="M279.411 271.74C279.34 272.007 279.066 272.165 278.799 272.093L274.222 270.867C273.955 270.795 273.797 270.521 273.868 270.254C273.939 269.988 274.214 269.829 274.48 269.901L279.058 271.127C279.325 271.199 279.483 271.473 279.411 271.74Z" fill="#42A0F0"/>
<path fill-rule="evenodd" clip-rule="evenodd" d="M291.988 273.988C291.85 274.227 291.544 274.309 291.305 274.171L274.98 264.746C274.741 264.608 274.659 264.302 274.797 264.063C274.935 263.824 275.241 263.742 275.48 263.88L291.805 273.305C292.044 273.443 292.126 273.749 291.988 273.988Z" fill="#42A0F0"/>
<path fill-rule="evenodd" clip-rule="evenodd" d="M289 276.369C288.734 276.444 288.457 276.29 288.382 276.025L287.103 271.538C287.027 271.273 287.181 270.996 287.446 270.92C287.712 270.845 287.989 270.998 288.064 271.264L289.343 275.751C289.419 276.016 289.265 276.293 289 276.369Z" fill="#42A0F0"/>
<path fill-rule="evenodd" clip-rule="evenodd" d="M292.644 270.045C292.715 270.312 292.557 270.586 292.29 270.657L287.713 271.884C287.446 271.955 287.172 271.797 287.1 271.53C287.029 271.264 287.187 270.99 287.454 270.918L292.031 269.692C292.298 269.62 292.572 269.778 292.644 270.045Z" fill="#42A0F0"/>
<path fill-rule="evenodd" clip-rule="evenodd" d="M279.362 266.253C279.429 266.521 279.267 266.792 278.999 266.86L274.474 267.995C274.206 268.062 273.934 267.9 273.867 267.632C273.8 267.364 273.962 267.093 274.23 267.025L278.755 265.89C279.023 265.822 279.295 265.985 279.362 266.253Z" fill="#42A0F0"/>
<path fill-rule="evenodd" clip-rule="evenodd" d="M279.006 266.858C278.74 266.929 278.465 266.771 278.394 266.504L277.167 261.926C277.096 261.66 277.254 261.386 277.521 261.314C277.788 261.243 278.062 261.401 278.133 261.668L279.36 266.245C279.431 266.512 279.273 266.786 279.006 266.858Z" fill="#42A0F0"/>
<path fill-rule="evenodd" clip-rule="evenodd" d="M128.733 302.6C129.009 302.6 129.233 302.824 129.233 303.1V319.705C129.233 319.981 129.009 320.205 128.733 320.205C128.457 320.205 128.233 319.981 128.233 319.705V303.1C128.233 302.824 128.457 302.6 128.733 302.6Z" fill="#42A0F0"/>
<path fill-rule="evenodd" clip-rule="evenodd" d="M131.588 305.971C131.675 306.233 131.534 306.516 131.272 306.603L128.004 307.692C127.742 307.78 127.459 307.638 127.371 307.376C127.284 307.114 127.426 306.831 127.688 306.744L130.956 305.655C131.218 305.567 131.501 305.709 131.588 305.971Z" fill="#42A0F0"/>
<path fill-rule="evenodd" clip-rule="evenodd" d="M124.103 305.971C124.191 305.709 124.474 305.567 124.736 305.655L128.004 306.744C128.266 306.831 128.407 307.114 128.32 307.376C128.233 307.638 127.95 307.78 127.688 307.692L124.42 306.603C124.158 306.516 124.016 306.233 124.103 305.971Z" fill="#42A0F0"/>
<path fill-rule="evenodd" clip-rule="evenodd" d="M127.43 315.657C127.583 315.427 127.893 315.365 128.123 315.518L131.391 317.697C131.621 317.85 131.683 318.161 131.53 318.39C131.377 318.62 131.066 318.682 130.836 318.529L127.568 316.35C127.339 316.197 127.277 315.886 127.43 315.657Z" fill="#42A0F0"/>
<path fill-rule="evenodd" clip-rule="evenodd" d="M128.262 315.657C128.415 315.886 128.353 316.197 128.123 316.35L124.855 318.529C124.625 318.682 124.315 318.62 124.162 318.39C124.008 318.161 124.071 317.85 124.3 317.697L127.568 315.518C127.798 315.365 128.109 315.427 128.262 315.657Z" fill="#42A0F0"/>
<path fill-rule="evenodd" clip-rule="evenodd" d="M136.317 307.07C136.455 307.309 136.373 307.615 136.134 307.753L121.754 316.056C121.514 316.194 121.209 316.112 121.071 315.873C120.932 315.634 121.014 315.328 121.254 315.19L135.634 306.887C135.873 306.749 136.179 306.831 136.317 307.07Z" fill="#42A0F0"/>
<path fill-rule="evenodd" clip-rule="evenodd" d="M136.824 310.444C136.756 310.711 136.485 310.874 136.217 310.807L132.231 309.806C131.963 309.739 131.8 309.467 131.867 309.199C131.935 308.931 132.206 308.769 132.474 308.836L136.461 309.837C136.728 309.904 136.891 310.176 136.824 310.444Z" fill="#42A0F0"/>
<path fill-rule="evenodd" clip-rule="evenodd" d="M133.562 304.806C133.829 304.877 133.987 305.151 133.916 305.418L132.835 309.45C132.764 309.717 132.49 309.875 132.223 309.804C131.956 309.732 131.798 309.458 131.869 309.192L132.95 305.159C133.021 304.892 133.295 304.734 133.562 304.806Z" fill="#42A0F0"/>
<path fill-rule="evenodd" clip-rule="evenodd" d="M124.82 313.268C125.085 313.344 125.239 313.621 125.164 313.886L124.037 317.839C123.961 318.104 123.685 318.258 123.419 318.183C123.154 318.107 123 317.83 123.075 317.565L124.202 313.612C124.278 313.346 124.554 313.193 124.82 313.268Z" fill="#42A0F0"/>
<path fill-rule="evenodd" clip-rule="evenodd" d="M125.166 313.878C125.094 314.145 124.82 314.303 124.553 314.232L120.521 313.151C120.254 313.08 120.096 312.806 120.167 312.539C120.239 312.272 120.513 312.114 120.78 312.186L124.812 313.266C125.079 313.338 125.237 313.612 125.166 313.878Z" fill="#42A0F0"/>
<path fill-rule="evenodd" clip-rule="evenodd" d="M136.237 315.872C136.099 316.111 135.793 316.193 135.554 316.055L121.174 307.753C120.935 307.615 120.853 307.309 120.991 307.07C121.129 306.831 121.435 306.749 121.674 306.887L136.054 315.189C136.293 315.327 136.375 315.633 136.237 315.872Z" fill="#42A0F0"/>
<path fill-rule="evenodd" clip-rule="evenodd" d="M133.569 317.998C133.304 318.073 133.027 317.92 132.952 317.654L131.825 313.701C131.749 313.436 131.903 313.159 132.169 313.083C132.434 313.008 132.711 313.161 132.787 313.427L133.913 317.38C133.989 317.645 133.835 317.922 133.569 317.998Z" fill="#42A0F0"/>
<path fill-rule="evenodd" clip-rule="evenodd" d="M136.821 312.354C136.893 312.621 136.735 312.895 136.468 312.967L132.435 314.047C132.169 314.118 131.894 313.96 131.823 313.693C131.752 313.427 131.91 313.153 132.177 313.081L136.209 312.001C136.476 311.929 136.75 312.087 136.821 312.354Z" fill="#42A0F0"/>
<path fill-rule="evenodd" clip-rule="evenodd" d="M125.121 309.014C125.189 309.282 125.026 309.554 124.758 309.621L120.772 310.622C120.504 310.689 120.232 310.526 120.165 310.259C120.098 309.991 120.26 309.719 120.528 309.652L124.515 308.651C124.782 308.584 125.054 308.746 125.121 309.014Z" fill="#42A0F0"/>
<path fill-rule="evenodd" clip-rule="evenodd" d="M124.766 309.619C124.499 309.69 124.225 309.532 124.153 309.265L123.073 305.233C123.001 304.966 123.16 304.692 123.426 304.621C123.693 304.549 123.967 304.707 124.039 304.974L125.119 309.007C125.191 309.273 125.033 309.547 124.766 309.619Z" fill="#42A0F0"/>
<path fill-rule="evenodd" clip-rule="evenodd" d="M66.0762 232.874C66.3523 232.874 66.5762 233.098 66.5762 233.374V246.842C66.5762 247.118 66.3523 247.342 66.0762 247.342C65.8 247.342 65.5762 247.118 65.5762 246.842V233.374C65.5762 233.098 65.8 232.874 66.0762 232.874Z" fill="#42A0F0"/>
<path fill-rule="evenodd" clip-rule="evenodd" d="M68.3734 235.09C68.4969 235.337 68.3967 235.638 68.1497 235.761L65.9707 236.85C65.7237 236.974 65.4234 236.873 65.2999 236.626C65.1765 236.379 65.2766 236.079 65.5237 235.956L67.7027 234.867C67.9497 234.743 68.25 234.843 68.3734 235.09Z" fill="#42A0F0"/>
<path fill-rule="evenodd" clip-rule="evenodd" d="M62.0048 235.156C62.0921 234.894 62.3752 234.752 62.6372 234.84L65.9052 235.929C66.1672 236.016 66.3088 236.299 66.2215 236.561C66.1342 236.823 65.851 236.965 65.5891 236.877L62.3211 235.788C62.0591 235.701 61.9175 235.418 62.0048 235.156Z" fill="#42A0F0"/>
<path fill-rule="evenodd" clip-rule="evenodd" d="M65.2999 243.806C65.4234 243.559 65.7237 243.458 65.9707 243.582L68.1497 244.671C68.3967 244.794 68.4969 245.095 68.3734 245.342C68.25 245.589 67.9497 245.689 67.7027 245.565L65.5237 244.476C65.2766 244.353 65.1765 244.053 65.2999 243.806Z" fill="#42A0F0"/>
<path fill-rule="evenodd" clip-rule="evenodd" d="M66.2215 243.871C66.3088 244.133 66.1672 244.416 65.9052 244.503L62.6372 245.592C62.3752 245.68 62.0921 245.538 62.0048 245.276C61.9175 245.014 62.0591 244.731 62.3211 244.644L65.5891 243.555C65.851 243.467 66.1342 243.609 66.2215 243.871Z" fill="#42A0F0"/>
<path fill-rule="evenodd" clip-rule="evenodd" d="M72.3076 236.547C72.4457 236.786 72.3638 237.092 72.1246 237.23L60.461 243.964C60.2218 244.102 59.916 244.02 59.778 243.781C59.6399 243.541 59.7218 243.236 59.961 243.098L71.6246 236.364C71.8638 236.226 72.1695 236.307 72.3076 236.547Z" fill="#42A0F0"/>
<path fill-rule="evenodd" clip-rule="evenodd" d="M72.7276 239.352C72.6603 239.62 72.3887 239.783 72.1209 239.715L68.8881 238.904C68.6203 238.837 68.4577 238.565 68.5249 238.297C68.5921 238.03 68.8637 237.867 69.1315 237.934L72.3643 238.746C72.6321 238.813 72.7948 239.084 72.7276 239.352Z" fill="#42A0F0"/>
<path fill-rule="evenodd" clip-rule="evenodd" d="M70.0157 234.666C70.2825 234.737 70.4408 235.012 70.3693 235.278L69.493 238.549C69.4216 238.815 69.1474 238.974 68.8806 238.902C68.6139 238.831 68.4556 238.557 68.5271 238.29L69.4034 235.02C69.4748 234.753 69.749 234.595 70.0157 234.666Z" fill="#42A0F0"/>
<path fill-rule="evenodd" clip-rule="evenodd" d="M62.9262 241.53C63.1918 241.606 63.3457 241.882 63.27 242.148L62.3562 245.353C62.2805 245.619 62.0039 245.773 61.7383 245.697C61.4728 245.621 61.3188 245.345 61.3945 245.079L62.3083 241.874C62.384 241.608 62.6607 241.454 62.9262 241.53Z" fill="#42A0F0"/>
<path fill-rule="evenodd" clip-rule="evenodd" d="M63.2723 242.14C63.2009 242.407 62.9267 242.565 62.66 242.494L59.3897 241.617C59.123 241.546 58.9647 241.272 59.0362 241.005C59.1076 240.738 59.3818 240.58 59.6485 240.652L62.9188 241.528C63.1855 241.599 63.3438 241.873 63.2723 242.14Z" fill="#42A0F0"/>
<path fill-rule="evenodd" clip-rule="evenodd" d="M72.2437 243.781C72.1056 244.02 71.7998 244.102 71.5606 243.964L59.897 237.23C59.6579 237.092 59.5759 236.786 59.714 236.547C59.8521 236.307 60.1579 236.226 60.397 236.364L72.0606 243.098C72.2998 243.236 72.3817 243.541 72.2437 243.781Z" fill="#42A0F0"/>
<path fill-rule="evenodd" clip-rule="evenodd" d="M70.0241 245.547C69.7585 245.623 69.4818 245.469 69.4061 245.204L68.4924 241.998C68.4167 241.733 68.5706 241.456 68.8361 241.38C69.1017 241.305 69.3784 241.459 69.4541 241.724L70.3678 244.929C70.4435 245.195 70.2896 245.472 70.0241 245.547Z" fill="#42A0F0"/>
<path fill-rule="evenodd" clip-rule="evenodd" d="M72.7262 240.856C72.7977 241.122 72.6394 241.397 72.3727 241.468L69.1024 242.344C68.8357 242.416 68.5615 242.257 68.49 241.991C68.4186 241.724 68.5768 241.45 68.8436 241.378L72.1138 240.502C72.3806 240.431 72.6547 240.589 72.7262 240.856Z" fill="#42A0F0"/>
<path fill-rule="evenodd" clip-rule="evenodd" d="M63.2375 238.148C63.3047 238.416 63.1421 238.687 62.8742 238.755L59.6415 239.566C59.3736 239.633 59.102 239.471 59.0348 239.203C58.9676 238.935 59.1302 238.663 59.3981 238.596L62.6308 237.785C62.8987 237.718 63.1703 237.88 63.2375 238.148Z" fill="#42A0F0"/>
<path fill-rule="evenodd" clip-rule="evenodd" d="M62.8817 238.753C62.615 238.824 62.3408 238.666 62.2693 238.399L61.3931 235.129C61.3216 234.862 61.4799 234.588 61.7466 234.516C62.0134 234.445 62.2875 234.603 62.359 234.87L63.2353 238.14C63.3067 238.407 63.1485 238.681 62.8817 238.753Z" fill="#42A0F0"/>
</svg>
