<svg width="303" height="202" viewBox="0 0 303 202" fill="none" xmlns="http://www.w3.org/2000/svg">
<path d="M82.1118 126.964C82.1118 119.805 86.4368 113.078 94.0248 107.239C68.2978 96.311 52.0898 80.39 52.0898 62.665C52.0898 29.713 108.09 3 177.174 3C246.258 3 302.258 29.713 302.258 62.665C302.258 80.565 285.74 96.619 259.575 107.555C266.911 113.32 271.082 119.933 271.082 126.964C271.082 149.364 228.782 167.513 176.598 167.513C124.414 167.513 82.1118 149.359 82.1118 126.964Z" fill="url(#paint0_linear_340_116)"/>
<path d="M176.597 166.513C189.292 166.513 201.606 165.446 213.196 163.342C224.373 161.313 234.405 158.412 243.013 154.717C247.239 152.904 251.073 150.91 254.408 148.791C257.757 146.664 260.629 144.394 262.944 142.046C267.68 137.24 270.081 132.166 270.081 126.964C270.081 123.7 269.119 120.449 267.222 117.3C265.352 114.195 262.571 111.181 258.957 108.341L257.617 107.289L259.189 106.632C265.673 103.922 271.58 100.883 276.746 97.6001C281.933 94.3028 286.396 90.7445 290.011 87.0238C293.669 83.2579 296.478 79.3029 298.362 75.2687C300.283 71.1524 301.258 66.9119 301.258 62.6648C301.258 58.753 300.43 54.84 298.797 51.0345C297.196 47.3022 294.801 43.6246 291.68 40.104C288.596 36.6261 284.773 33.2678 280.319 30.1225C275.89 26.9957 270.8 24.0536 265.191 21.378C259.571 18.6971 253.384 16.2624 246.803 14.1416C240.151 11.9982 233.039 10.1569 225.664 8.669C210.308 5.57088 193.994 4 177.174 4C160.354 4 144.039 5.57088 128.683 8.669C121.308 10.1569 114.196 11.9982 107.545 14.1416C100.964 16.2624 94.7769 18.6971 89.1566 21.378C83.5472 24.0536 78.4575 26.9957 74.029 30.1225C69.5741 33.2678 65.7517 36.6261 62.6678 40.104C59.546 43.6246 57.1512 47.3022 55.5501 51.0345C53.9176 54.84 53.0898 58.753 53.0898 62.6648C53.0898 66.871 54.0461 71.0719 55.9319 75.1509C57.7803 79.1487 60.5387 83.0707 64.1305 86.808C67.6789 90.5001 72.0626 94.0355 77.1597 97.3159C82.2336 100.582 88.0393 103.611 94.4153 106.319L95.9907 106.988L94.6341 108.032C90.8933 110.91 88.0135 113.971 86.0747 117.129C84.1085 120.332 83.1116 123.641 83.1116 126.964C83.1116 132.166 85.513 137.24 90.249 142.046C92.564 144.394 95.4357 146.664 98.7844 148.791C102.119 150.91 105.954 152.904 110.18 154.717C118.788 158.412 128.82 161.313 139.998 163.342C151.587 165.446 163.901 166.513 176.597 166.513ZM176.597 167.513C124.414 167.513 82.1116 149.359 82.1116 126.964C82.1116 119.804 86.4363 113.077 94.0243 107.239C68.2973 96.3112 52.0898 80.3898 52.0898 62.6648C52.0898 29.7127 108.092 3 177.174 3C246.256 3 302.258 29.7127 302.258 62.6648C302.258 80.5628 285.739 96.6188 259.574 107.555C266.911 113.319 271.081 119.933 271.081 126.964C271.081 149.359 228.779 167.513 176.597 167.513Z" fill="white" fill-opacity="0.5"/>
<path fill-rule="evenodd" clip-rule="evenodd" d="M60.27 106.736C60.2706 106.735 60.2712 106.735 63.2619 109.391C66.2526 112.047 66.2531 112.047 66.2534 112.046L66.2491 112.051L66.2232 112.081C66.1986 112.109 66.1595 112.153 66.1071 112.214C66.0023 112.335 65.8442 112.519 65.6411 112.761C65.2346 113.244 64.6499 113.955 63.9537 114.843C62.5562 116.626 60.7347 119.095 59.0095 121.865C57.2721 124.655 55.7054 127.634 54.74 130.447C53.7513 133.328 53.5484 135.588 53.9685 137.18C55.1718 141.741 57.2773 145.887 63.5542 149.88C70.132 154.064 81.3567 158.112 101.029 161.689C120.383 165.209 147.368 165.232 169.754 164.331C180.897 163.883 190.812 163.211 197.94 162.651C201.503 162.371 204.367 162.119 206.338 161.937C207.324 161.847 208.085 161.773 208.599 161.723C208.856 161.698 209.051 161.679 209.181 161.665L209.372 161.646C209.372 161.646 209.372 161.646 209.783 165.625C210.194 169.604 210.193 169.604 210.192 169.604L210.189 169.604L209.982 169.625C209.845 169.639 209.643 169.659 209.379 169.685C208.851 169.737 208.074 169.811 207.072 169.904C205.07 170.088 202.169 170.343 198.567 170.626C191.364 171.193 181.344 171.872 170.075 172.325C147.638 173.227 119.888 173.25 99.5973 169.56C79.6241 165.928 67.1659 161.658 59.2604 156.63C51.054 151.409 47.8759 145.448 46.2332 139.221C45.2303 135.42 45.961 131.382 47.1732 127.85C48.4087 124.25 50.3102 120.701 52.2188 117.636C54.1396 114.552 56.1419 111.841 57.6569 109.908C58.4169 108.939 59.0604 108.156 59.5182 107.612C59.7473 107.34 59.9302 107.126 60.0585 106.978C60.1226 106.904 60.1731 106.846 60.2089 106.805L60.2515 106.757L60.2642 106.743L60.27 106.736Z" fill="#B2B2B2"/>
<path fill-rule="evenodd" clip-rule="evenodd" d="M96.4149 163.501C97.9469 165.09 97.9027 167.619 96.3173 169.153C96.3157 169.154 96.3141 169.156 96.3125 169.157L93.5357 166.278C96.3125 169.157 96.3132 169.157 96.3139 169.156L96.3173 169.153L96.3091 169.161C96.299 169.17 96.2802 169.189 96.2534 169.216C96.1997 169.269 96.1141 169.356 96.0018 169.473C95.7769 169.707 95.4475 170.059 95.0558 170.508C94.2651 171.414 93.256 172.673 92.3396 174.112C90.3118 177.295 89.5643 180.046 90.2491 181.876C91.1777 184.358 93.753 186.983 97.792 189.29C101.733 191.541 106.542 193.182 111.024 193.975L111.053 193.98L111.082 193.986C121.709 196.029 132.499 197.11 143.321 197.214C151.824 197.268 160.374 196.122 166.849 194.942C170.075 194.354 172.758 193.764 174.628 193.322C175.562 193.101 176.292 192.918 176.783 192.791C177.029 192.728 177.214 192.679 177.336 192.646C177.371 192.637 177.401 192.629 177.425 192.622C177.443 192.617 177.458 192.613 177.47 192.61L177.5 192.602L177.505 192.6M109.6 201.848C104.33 200.911 98.6442 198.99 93.8243 196.237C89.0936 193.535 84.6368 189.706 82.7564 184.68C80.6322 179.002 83.4011 173.253 85.5922 169.814C86.7851 167.941 88.0609 166.357 89.0278 165.249C89.5148 164.691 89.9325 164.243 90.2348 163.928C90.3861 163.771 90.5092 163.646 90.5983 163.557C90.6429 163.513 90.679 163.477 90.706 163.45L90.7396 163.418L90.7511 163.407L90.7573 163.4C90.7581 163.4 90.7589 163.399 93.5357 166.278L90.7589 163.399C92.349 161.865 94.8813 161.911 96.4149 163.501" fill="#B2B2B2"/>
<path fill-rule="evenodd" clip-rule="evenodd" d="M62.5836 25.0335C39.5058 35.6505 27.0908 49.509 27.0908 63.406C27.0908 77.303 39.5058 91.1615 62.5836 101.778C85.3172 112.237 117.004 118.812 152.22 118.812C187.435 118.812 219.122 112.237 241.856 101.778C264.934 91.1615 277.349 77.303 277.349 63.406C277.349 49.509 264.934 35.6505 241.856 25.0335C219.122 14.5749 187.435 8 152.22 8C117.004 8 85.3172 14.5749 62.5836 25.0335ZM59.2401 17.7657C83.242 6.72359 116.119 0 152.22 0C188.32 0 221.198 6.72359 245.2 17.7657C268.857 28.6495 285.349 44.494 285.349 63.406C285.349 82.318 268.857 98.1625 245.2 109.046C221.198 120.088 188.32 126.812 152.22 126.812C116.119 126.812 83.242 120.088 59.2401 109.046C35.5823 98.1625 19.0908 82.318 19.0908 63.406C19.0908 44.494 35.5823 28.6495 59.2401 17.7657Z" fill="#B2B2B2"/>
<path fill-rule="evenodd" clip-rule="evenodd" d="M60.6793 180.086C61.4604 180.867 61.4604 182.133 60.6793 182.914L55.6593 187.934C54.8783 188.715 53.612 188.715 52.8309 187.934C52.0499 187.153 52.0499 185.887 52.8309 185.106L57.8509 180.086C58.632 179.305 59.8983 179.305 60.6793 180.086Z" fill="#FFD100"/>
<path fill-rule="evenodd" clip-rule="evenodd" d="M52.8309 180.086C53.612 179.305 54.8783 179.305 55.6593 180.086L60.6793 185.106C61.4604 185.887 61.4604 187.153 60.6793 187.934C59.8983 188.715 58.632 188.715 57.8509 187.934L52.8309 182.914C52.0499 182.133 52.0499 180.867 52.8309 180.086Z" fill="#FFD100"/>
<path fill-rule="evenodd" clip-rule="evenodd" d="M294.679 97.0858C295.46 97.8668 295.46 99.1332 294.679 99.9142L289.659 104.934C288.878 105.715 287.612 105.715 286.831 104.934C286.05 104.153 286.05 102.887 286.831 102.106L291.851 97.0858C292.632 96.3047 293.898 96.3047 294.679 97.0858Z" fill="#FFD100"/>
<path fill-rule="evenodd" clip-rule="evenodd" d="M286.831 97.0858C287.612 96.3047 288.878 96.3047 289.659 97.0858L294.679 102.106C295.46 102.887 295.46 104.153 294.679 104.934C293.898 105.715 292.632 105.715 291.851 104.934L286.831 99.9142C286.05 99.1332 286.05 97.8668 286.831 97.0858Z" fill="#FFD100"/>
<path d="M15.329 100.296H40.985L26.24 121.954L43.484 122.28L7.284 165.12L16.054 132.458H0L15.329 100.296Z" fill="url(#paint1_linear_340_116)"/>
<path d="M251.329 130.296H276.985L262.24 151.954L279.484 152.28L243.284 195.12L252.054 162.458H236L251.329 130.296Z" fill="url(#paint2_linear_340_116)"/>
<defs>
<linearGradient id="paint0_linear_340_116" x1="153.408" y1="23.7286" x2="208.488" y2="174.53" gradientUnits="userSpaceOnUse">
<stop stop-color="white" stop-opacity="0.596"/>
<stop offset="1" stop-color="#F7F7F7" stop-opacity="0.204"/>
</linearGradient>
<linearGradient id="paint1_linear_340_116" x1="17.7415" y1="132.708" x2="-2.56973" y2="125.261" gradientUnits="userSpaceOnUse">
<stop stop-color="#FFD100"/>
<stop offset="1" stop-color="#FFF0AA"/>
</linearGradient>
<linearGradient id="paint2_linear_340_116" x1="253.741" y1="162.708" x2="233.43" y2="155.261" gradientUnits="userSpaceOnUse">
<stop stop-color="#FFD100"/>
<stop offset="1" stop-color="#FFF0AA"/>
</linearGradient>
</defs>
</svg>
