<svg width="16" height="19" viewBox="0 0 16 19" fill="none" xmlns="http://www.w3.org/2000/svg">
<path d="M7.81581 3.93537C7.88467 3.7726 8.11533 3.7726 8.18419 3.93537L13.2876 15.998C13.3602 16.1694 13.1796 16.3383 13.0133 16.2544L9.06667 14.2632L8.88497 14.1735C8.3271 13.8982 7.6729 13.8982 7.11503 14.1735L6.93333 14.2632L2.98669 16.2544C2.82044 16.3383 2.63985 16.1694 2.7124 15.998L7.81581 3.93537ZM8.92345 1.22236C8.58201 0.400648 7.41799 0.400647 7.07655 1.22236L0.203689 17.7624C0.0805667 18.0587 0.149446 18.4001 0.37783 18.6255C0.607052 18.8517 0.950873 18.9156 1.24608 18.7869L7.20065 16.1906C7.71038 15.9684 8.28962 15.9684 8.79935 16.1906L14.7539 18.7869C15.0491 18.9156 15.3929 18.8517 15.6222 18.6255C15.8506 18.4001 15.9194 18.0587 15.7963 17.7624L8.92345 1.22236Z" fill="white"/>
</svg>
